ply
format ascii 1.0
comment SOLIDWORKS generated,length unit = millimeters
element vertex 420
property float x
property float y
property float z
element face 832
property uchar red
property uchar green
property uchar blue
property uchar alpha
property list uchar int vertex_indices
end_header
0 0 -30 
-5.07002 0 -29.5685 
5.07002 0 -29.5685 
-9.99419 0 -28.2863 
9.99419 0 -28.2863 
-14.6308 0 -26.1904 
14.6308 0 -26.1904 
-18.8466 0 -23.3411 
18.8466 0 -23.3411 
-22.5202 0 -19.8202 
22.5202 0 -19.8202 
-25.5459 0 -15.7292 
25.5459 0 -15.7292 
-27.8367 0 -11.1857 
27.8367 0 -11.1857 
-29.3267 0 -6.32038 
29.3267 0 -6.32038 
-29.973 0 -1.27324 
29.973 0 -1.27324 
0 0 0 
-29.757 0 3.81053 
29.757 0 3.81053 
-28.685 0 8.78468 
28.685 0 8.78468 
-26.7878 0 13.5061 
26.7878 0 13.5061 
-24.1199 0 17.839 
24.1199 0 17.839 
-20.7582 0 21.6587 
20.7582 0 21.6587 
-16.7992 0 24.8553 
16.7992 0 24.8553 
-12.357 0 27.3369 
12.357 0 27.3369 
-7.55934 0 29.032 
7.55934 0 29.032 
-2.54418 0 29.8919 
2.54418 0 29.8919 
3.67394e-15 0 30 
1.10218e-14 0 30 
0 10 -30 
2.77556e-14 10 -30 
-2.54418 10.0624 -29.8919 
2.54418 10.0624 -29.8919 
-5.07002 10.2491 -29.5685 
5.07002 10.2491 -29.5685 
-7.55934 10.5589 -29.032 
7.55934 10.5589 -29.032 
-9.99419 10.9894 -28.2863 
9.99419 10.9894 -28.2863 
-12.357 11.5376 -27.3369 
12.357 11.5376 -27.3369 
-14.6308 12.1995 -26.1904 
14.6308 12.1995 -26.1904 
-28.4547 12.8358 -9.50426 
28.4547 12.8358 -9.50426 
-28.4632 12.8657 -9.47875 
28.4632 12.8657 -9.47875 
-16.7992 12.9703 -24.8553 
16.7992 12.9703 -24.8553 
-18.8466 13.8445 -23.3411 
18.8466 13.8445 -23.3411 
29.0921 14.3038 -7.32473 
-20.7582 14.8159 -21.6587 
20.7582 14.8159 -21.6587 
29.0586 14.9698 -7.6961 
-29.3268 14.9809 -6.31959 
29.3273 14.9824 -6.31728 
-29.3674 15.1098 -6.12813 
-29.114 15.1659 -7.53039 
29.1141 15.1662 -7.53012 
-29.3521 15.8347 -6.54345 
-22.5202 15.8773 -19.8202 
22.5202 15.8773 -19.8202 
29.4435 16.331 -6.54378 
-29.4468 16.3425 -6.53403 
-24.1199 17.0212 -17.839 
24.1199 17.0212 -17.839 
29.8284 17.0796 -3.20378 
29.7421 17.3798 -5.64982 
-29.747 17.397 -5.63506 
29.8509 17.7808 -3.61104 
-29.9342 17.8998 -1.98612 
-25.5459 18.2392 -15.7292 
25.5459 18.2392 -15.7292 
-29.973 18.3801 -1.27308 
29.973 18.3806 -1.27235 
30.0036 18.4636 -4.02164 
-29.9718 18.5917 -2.3881 
30.1917 18.9354 -4.30396 
-30.1366 19.2659 -2.78825 
-30.3354 19.4249 -3.87353 
30.3466 19.4628 -3.84002 
-30.3585 19.5029 -3.80456 
-26.7878 19.5228 -13.5061 
26.7878 19.5228 -13.5061 
29.984 19.8969 0.978854 
-30.4242 19.905 -3.17632 
-30.5325 20.0878 -3.28363 
30.582 20.253 -3.13518 
30.0569 20.5674 0.594125 
-29.9193 20.7186 2.19877 
-27.8367 20.8624 -11.1857 
27.8393 20.8662 -11.1793 
30.2485 21.2218 0.222607 
30.9177 21.3532 -2.13027 
-30.9202 21.3611 -2.12287 
-30.0058 21.3808 1.82284 
-29.7574 21.8023 3.8076 
29.7573 21.8028 3.80836 
-28.4547 21.8332 -9.50426 
28.4547 21.8332 -9.50426 
30.5543 21.8441 -0.126738 
-30.2074 22.0274 1.46435 
-31.1732 22.1665 -1.36524 
30.9668 22.4195 -0.445488 
-30.5194 22.6432 1.13171 
29.5566 22.699 5.13886 
-31.426 22.948 -0.60839 
31.426 22.948 -0.60839 
31.4718 23.087 -0.471207 
-30.9344 23.2139 0.832754 
29.6735 23.3421 4.78792 
-29.3219 23.5096 6.34225 
-31.4427 23.7259 0.574489 
29.8962 23.9709 4.46356 
-31.7788 23.9954 0.447678 
-29.4501 24.1452 6.00301 
31.9342 24.4397 0.913 
-31.965 24.5266 1.00537 
30.2199 24.5718 4.17291 
31.9861 24.5857 1.06848 
-31.9882 24.5915 1.07472 
-29.6802 24.7672 5.69367 
30.6374 25.1315 3.92239 
-28.6868 25.1508 8.77885 
28.6856 25.1534 8.78264 
-30.0073 25.3623 5.42086 
28.5568 25.4297 9.19282 
31.1396 25.6376 3.71749 
32.4725 25.8887 2.52467 
-32.4788 25.9048 2.54351 
-30.4244 25.9176 5.19044 
-32.502 25.9638 2.61297 
28.7087 26.0485 8.88445 
31.7154 26.079 3.56274 
-28.1541 26.2164 10.3608 
32.6162 26.2502 2.95476 
-30.9226 26.4214 5.00733 
32.3521 26.4461 3.46154 
32.7755 26.6377 3.43166 
28.953 26.6549 8.61297 
-28.3144 26.8286 10.0663 
-31.4912 26.8628 4.87546 
32.9356 27.0128 3.91118 
-32.9424 27.0284 3.9316 
-32.118 27.2324 4.79766 
29.2847 27.2368 8.38382 
-33.0396 27.2482 4.2224 
-28.563 27.4289 9.81118 
-32.7896 27.5223 4.77558 
-33.2312 27.6649 4.79597 
33.2656 27.7374 4.89909 
29.6973 27.7824 8.2016 
-33.3835 27.98 5.25208 
33.3851 27.9831 5.25671 
-28.8952 28.0056 9.60045 
27.0079 28.0348 13.0604 
30.1824 28.2809 8.06995 
-26.7903 28.3317 13.5012 
26.7897 28.3324 13.5023 
-33.5805 28.3651 5.84196 
-29.3043 28.5474 9.4382 
27.1842 28.6325 12.8006 
30.7303 28.7222 7.99153 
-26.4406 28.7847 14.1737 
-33.813 28.7857 6.53786 
33.813 28.7857 6.53786 
-29.7825 29.0438 9.32759 
31.33 29.0975 7.9679 
27.4393 29.2193 12.5852 
-26.622 29.3766 13.9292 
31.9696 29.3993 7.99953 
-30.3204 29.4851 9.27077 
32.6361 29.6216 8.0858 
33.3163 29.7598 8.22496 
27.7687 29.7845 12.4181 
-30.9075 29.8626 9.26886 
-26.8782 29.9581 13.7309 
-31.5325 30.1691 9.32188 
28.1662 30.3178 12.3025 
-32.183 30.3986 9.42882 
24.9445 30.4637 16.6665 
-27.2048 30.5188 13.5822 
-32.8465 30.5465 9.58757 
28.6248 30.8095 12.2403 
25.1336 31.0433 16.4582 
-27.596 31.0487 13.486 
-24.218 31.1636 17.7056 
24.1264 31.2476 17.8302 
29.1359 31.2506 12.2328 
-24.121 31.2525 17.8375 
-28.0448 31.5385 13.4438 
25.3885 31.6132 16.2995 
29.6903 31.633 12.2801 
-24.4087 31.7382 17.5132 
30.2778 31.9499 12.3813 
-28.5433 31.9795 13.4564 
25.7051 32.1641 16.193 
30.8879 32.1953 12.5346 
-24.6613 32.3035 17.3715 
-29.0826 32.3639 13.5236 
31.5092 32.3649 12.7372 
22.4117 32.6706 19.9428 
-29.6532 32.6848 13.6441 
26.0781 32.6867 16.1404 
-24.972 32.8504 17.2829 
-30.2449 32.9366 13.816 
-30.8474 33.1148 14.036 
26.5013 33.1724 16.1427 
22.6018 33.2348 19.7862 
-21.5339 33.307 20.8876 
-25.3357 33.3701 17.2487 
26.9676 33.6132 16.1999 
22.8456 33.7904 19.6823 
20.7675 33.8203 21.6497 
-20.7656 33.8216 21.6516 
-25.7464 33.8541 17.2696 
-21.7219 33.8669 20.7467 
27.4694 34.0016 16.3108 
-26.1976 34.2948 17.345 
23.1395 34.329 19.6328 
27.9983 34.3314 16.4738 
-21.9601 34.4186 20.6593 
28.5455 34.5969 16.6861 
19.463 34.6151 22.8296 
-26.682 34.6849 17.474 
29.1019 34.7938 16.9442 
23.4789 34.8426 19.6384 
-22.2449 34.9539 20.6265 
-27.1918 35.0182 17.6543 
19.6428 35.1665 22.7221 
-18.4448 35.1743 23.6599 
-27.7188 35.2893 17.883 
23.8588 35.3232 19.699 
-22.5722 35.4649 20.649 
-28.2544 35.4938 18.1565 
19.8652 35.7103 22.669 
-18.619 35.7222 23.567 
24.2734 35.7636 19.8136 
-22.9372 35.944 20.7263 
-16.8101 35.9746 24.8479 
16.806 35.9764 24.8507 
24.7164 36.1571 19.9806 
20.1271 36.2388 22.6712 
-18.8326 36.2627 23.529 
16.1583 36.2633 25.2767 
-23.3343 36.3843 20.8573 
25.181 36.4977 20.1974 
-15.0148 36.7318 25.9722 
20.425 36.7448 22.7284 
-23.7578 36.7792 21.0401 
25.6603 36.7803 20.4607 
-19.0827 36.7884 23.5462 
16.3174 36.8045 25.2132 
26.147 37.0007 20.7666 
-24.2015 37.1229 21.2721 
20.7546 37.221 22.8401 
-15.1652 37.2702 25.9216 
-19.3657 37.2922 23.6184 
16.5093 37.3387 25.2048 
-24.6588 37.4102 21.5497 
12.5619 37.588 27.2433 
-25.1228 37.6371 21.8689 
-12.3656 37.6484 27.333 
12.3589 37.6505 27.336 
21.1114 37.661 23.0046 
-19.678 37.7673 23.7448 
-15.3453 37.8018 25.9262 
16.7313 37.8591 25.2517 
-11.313 37.953 27.7852 
21.4904 38.0587 23.2196 
12.6916 38.1213 27.2167 
-20.0153 38.2072 23.9234 
-15.5528 38.3199 25.986 
16.9806 38.3589 25.3531 
21.8864 38.4084 23.4821 
-11.4313 38.4841 27.769 
8.74084 38.5681 28.6984 
-20.373 38.606 24.152 
12.8451 38.6481 27.2453 
22.2937 38.7052 23.7885 
7.56483 38.7919 29.0306 
-7.56062 38.7926 29.0317 
-15.785 38.818 26.1 
-7.41165 38.8185 29.07 
17.254 38.8316 25.5079 
22.7068 38.9452 24.1346 
-20.7462 38.9582 24.4274 
-11.5705 39.009 27.8079 
8.8341 39.0957 28.7 
13.0204 39.1622 27.3287 
4.7633 39.1885 29.6194 
-21.1299 39.259 24.7459 
17.5481 39.2713 25.7141 
-16.039 39.2897 26.2671 
-3.38364 39.3159 29.8086 
-7.49137 39.3446 29.079 
2.547 39.3719 29.8917 
-2.5451 39.372 29.8918 
0.698452 39.4394 29.9919 
-21.5189 39.5044 25.1032 
-11.7291 39.5213 27.9015 
8.94302 39.6173 28.7565 
13.2154 39.6572 27.4659 
17.8589 39.6722 25.9688 
4.81515 39.7126 29.6392 
-16.3117 39.7293 26.4849 
-3.42061 39.8393 29.8321 
-7.58419 39.8648 29.1427 
0.706113 39.9621 30.0191 
-11.905 40.0151 28.0486 
18.1825 40.0292 26.269 
9.06635 40.1268 28.8673 
13.4279 40.1272 27.6553 
-16.5995 40.1311 26.7509 
4.87523 40.2309 29.7136 
18.5148 40.3376 26.6107 
-3.4634 40.3569 29.9103 
-7.68905 40.3732 29.2605 
0.714967 40.479 30.1008 
-12.0963 40.4843 28.2474 
-16.8989 40.4901 27.0615 
13.6551 40.5666 27.8945 
18.8513 40.5935 26.9894 
9.20267 40.6184 29.031 
4.94289 40.7375 29.8419 
-17.2061 40.8017 27.413 
-3.51153 40.863 30.0421 
-7.80476 40.8639 29.431 
-12.3007 40.9236 28.4957 
13.8945 40.97 28.1807 
0.724915 40.9846 30.2361 
-17.5173 41.062 27.8009 
9.35041 41.0864 29.2458 
5.01738 41.227 30.0224 
-12.5156 41.3277 28.7904 
-7.93002 41.3315 29.6523 
14.143 41.3325 28.5103 
-3.56447 41.352 30.2261 
0.735849 41.4732 30.4235 
9.50788 41.5255 29.5093 
14.3977 41.6499 28.8796 
-12.7387 41.6918 29.1281 
5.09787 41.6938 30.2534 
-8.0634 41.7706 29.922 
-3.62164 41.8186 30.4604 
14.6556 41.9182 29.2839 
9.67327 41.9307 29.8184 
0.747649 41.9395 30.661 
-12.9673 42.0115 29.5048 
5.18345 42.1328 30.5321 
-8.2034 42.1762 30.2369 
-3.6824 42.2575 30.7422 
-13.1985 42.2831 29.916 
9.84468 42.2973 30.1695 
0.760185 42.3784 30.9459 
5.27319 42.5391 30.8556 
-8.34842 42.5438 30.5935 
10.0201 42.621 30.5587 
-3.74609 42.664 31.0686 
0.773321 42.7851 31.2751 
-8.49682 42.8691 30.9877 
10.1976 42.8983 30.9815 
5.36609 42.9081 31.2202 
-3.81201 43.0336 31.4359 
-8.64692 43.1486 31.4151 
0.786912 43.1552 31.6451 
5.4611 43.2359 31.6218 
-3.87942 43.3622 31.8401 
0.800809 43.4845 32.0517 
5.55719 43.5187 32.056 
-3.94758 43.646 32.2767 
0.81486 43.7695 32.4905 
-49.165 55.322 52.5 
49.165 55.322 52.5 
-49.3712 55.743 53.1175 
49.3712 55.743 53.1175 
-49.5542 56.2513 53.6653 
49.5542 56.2513 53.6653 
-48.4969 56.4767 50.5 
48.4969 56.4767 50.5 
-49.7098 56.8355 54.1312 
49.7098 56.8355 54.1312 
-48.7032 56.8977 51.1175 
48.7032 56.8977 51.1175 
-48.8862 57.406 51.6653 
48.8862 57.406 51.6653 
-49.8346 57.4827 54.5048 
49.8346 57.4827 54.5048 
-49.0418 57.9902 52.1312 
49.0418 57.9902 52.1312 
-49.9258 58.1783 54.7779 
49.9258 58.1783 54.7779 
-49.1666 58.6374 52.5048 
49.1666 58.6374 52.5048 
-49.9813 58.9069 54.9442 
49.9813 58.9069 54.9442 
-49.2578 59.333 52.7779 
49.2578 59.333 52.7779 
-50 59.6521 55 
50 59.6521 55 
-49.3133 60.0616 52.9442 
49.3133 60.0616 52.9442 
-49.332 60.8068 53 
49.332 60.8068 53 
-49.332 181.536 53 
49.332 181.536 53 
-50 185 55 
50 185 55 
202 209 238 0 3 40 2 0
202 209 238 0 3 42 40 0
202 209 238 0 3 1 42 0
202 209 238 0 3 2 19 0
202 209 238 0 3 19 1 0
202 209 238 0 3 44 42 1
202 209 238 0 3 46 44 1
202 209 238 0 3 3 46 1
202 209 238 0 3 19 3 1
202 209 238 0 3 43 45 2
202 209 238 0 3 45 4 2
202 209 238 0 3 40 43 2
202 209 238 0 3 4 19 2
202 209 238 0 3 48 46 3
202 209 238 0 3 50 48 3
202 209 238 0 3 5 50 3
202 209 238 0 3 19 5 3
202 209 238 0 3 45 47 4
202 209 238 0 3 47 49 4
202 209 238 0 3 49 6 4
202 209 238 0 3 6 19 4
202 209 238 0 3 52 50 5
202 209 238 0 3 58 52 5
202 209 238 0 3 7 58 5
202 209 238 0 3 19 7 5
202 209 238 0 3 53 8 6
202 209 238 0 3 49 51 6
202 209 238 0 3 51 53 6
202 209 238 0 3 8 19 6
202 209 238 0 3 60 58 7
202 209 238 0 3 63 60 7
202 209 238 0 3 9 63 7
202 209 238 0 3 19 9 7
202 209 238 0 3 53 59 8
202 209 238 0 3 59 61 8
202 209 238 0 3 61 10 8
202 209 238 0 3 10 19 8
202 209 238 0 3 72 63 9
202 209 238 0 3 76 72 9
202 209 238 0 3 11 76 9
202 209 238 0 3 19 11 9
202 209 238 0 3 73 12 10
202 209 238 0 3 61 64 10
202 209 238 0 3 64 73 10
202 209 238 0 3 12 19 10
202 209 238 0 3 83 76 11
202 209 238 0 3 94 83 11
202 209 238 0 3 13 94 11
202 209 238 0 3 19 13 11
202 209 238 0 3 73 77 12
202 209 238 0 3 77 84 12
202 209 238 0 3 84 14 12
202 209 238 0 3 14 19 12
202 209 238 0 3 102 94 13
202 209 238 0 3 54 102 13
202 209 238 0 3 66 54 13
202 209 238 0 3 15 66 13
202 209 238 0 3 19 15 13
202 209 238 0 3 55 16 14
202 209 238 0 3 103 55 14
202 209 238 0 3 84 95 14
202 209 238 0 3 95 103 14
202 209 238 0 3 16 19 14
202 209 238 0 3 68 66 15
202 209 238 0 3 17 68 15
202 209 238 0 3 19 17 15
202 209 238 0 3 55 62 16
202 209 238 0 3 62 67 16
202 209 238 0 3 67 18 16
202 209 238 0 3 18 19 16
202 209 238 0 3 82 68 17
202 209 238 0 3 20 101 17
202 209 238 0 3 101 85 17
202 209 238 0 3 85 82 17
202 209 238 0 3 19 20 17
202 209 238 0 3 86 21 18
202 209 238 0 3 67 78 18
202 209 238 0 3 78 86 18
202 209 238 0 3 21 19 18
202 209 238 0 3 38 36 19
202 209 238 0 3 37 38 19
202 209 238 0 3 31 33 19
202 209 238 0 3 33 35 19
202 209 238 0 3 35 37 19
202 209 238 0 3 25 27 19
202 209 238 0 3 27 29 19
202 209 238 0 3 29 31 19
202 209 238 0 3 21 23 19
202 209 238 0 3 23 25 19
202 209 238 0 3 24 22 19
202 209 238 0 3 22 20 19
202 209 238 0 3 30 28 19
202 209 238 0 3 28 26 19
202 209 238 0 3 26 24 19
202 209 238 0 3 36 34 19
202 209 238 0 3 34 32 19
202 209 238 0 3 32 30 19
202 209 238 0 3 22 123 20
202 209 238 0 3 123 108 20
202 209 238 0 3 108 101 20
202 209 238 0 3 86 96 21
202 209 238 0 3 96 109 21
202 209 238 0 3 109 23 21
202 209 238 0 3 24 146 22
202 209 238 0 3 146 135 22
202 209 238 0 3 135 123 22
202 209 238 0 3 136 25 23
202 209 238 0 3 109 117 23
202 209 238 0 3 117 136 23
202 209 238 0 3 26 175 24
202 209 238 0 3 175 169 24
202 209 238 0 3 169 146 24
202 209 238 0 3 136 138 25
202 209 238 0 3 138 167 25
202 209 238 0 3 167 170 25
202 209 238 0 3 170 27 25
202 209 238 0 3 201 198 26
202 209 238 0 3 198 175 26
202 209 238 0 3 221 201 26
202 209 238 0 3 28 221 26
202 209 238 0 3 213 29 27
202 209 238 0 3 199 213 27
202 209 238 0 3 170 192 27
202 209 238 0 3 192 199 27
202 209 238 0 3 226 221 28
202 209 238 0 3 242 226 28
202 209 238 0 3 30 242 28
202 209 238 0 3 235 31 29
202 209 238 0 3 225 235 29
202 209 238 0 3 213 225 29
202 209 238 0 3 251 242 30
202 209 238 0 3 259 251 30
202 209 238 0 3 32 259 30
202 209 238 0 3 256 33 31
202 209 238 0 3 252 256 31
202 209 238 0 3 235 252 31
202 209 238 0 3 274 259 32
202 209 238 0 3 280 274 32
202 209 238 0 3 34 280 32
202 209 238 0 3 272 275 33
202 209 238 0 3 275 288 33
202 209 238 0 3 288 35 33
202 209 238 0 3 256 272 33
202 209 238 0 3 293 280 34
202 209 238 0 3 295 293 34
202 209 238 0 3 36 295 34
202 209 238 0 3 302 37 35
202 209 238 0 3 288 292 35
202 209 238 0 3 292 302 35
202 209 238 0 3 306 295 36
202 209 238 0 3 38 310 36
202 209 238 0 3 310 309 36
202 209 238 0 3 309 306 36
202 209 238 0 3 302 308 37
202 209 238 0 3 308 38 37
202 209 238 0 3 308 310 38
202 209 238 0 3 42 43 40
202 209 238 0 3 44 43 42
202 209 238 0 3 44 45 43
202 209 238 0 3 46 47 44
202 209 238 0 3 47 45 44
202 209 238 0 3 48 47 46
202 209 238 0 3 48 49 47
202 209 238 0 3 50 51 48
202 209 238 0 3 51 49 48
202 209 238 0 3 52 53 50
202 209 238 0 3 53 51 50
202 209 238 0 3 58 53 52
202 209 238 0 3 58 59 53
202 209 238 0 3 110 102 54
202 209 238 0 3 56 110 54
202 209 238 0 3 66 56 54
202 209 238 0 3 103 111 55
202 209 238 0 3 111 57 55
202 209 238 0 3 57 62 55
202 209 238 0 3 69 110 56
202 209 238 0 3 66 69 56
202 209 238 0 3 111 65 57
202 209 238 0 3 65 62 57
202 209 238 0 3 60 59 58
202 209 238 0 3 60 61 59
202 209 238 0 3 63 61 60
202 209 238 0 3 63 64 61
202 209 238 0 3 65 67 62
202 209 238 0 3 72 73 63
202 209 238 0 3 73 64 63
202 209 238 0 3 111 70 65
202 209 238 0 3 70 67 65
202 209 238 0 3 71 69 66
202 209 238 0 3 68 71 66
202 209 238 0 3 70 78 67
202 209 238 0 3 82 71 68
202 209 238 0 3 75 110 69
202 209 238 0 3 71 75 69
202 209 238 0 3 111 74 70
202 209 238 0 3 74 81 70
202 209 238 0 3 81 78 70
202 209 238 0 3 88 80 71
202 209 238 0 3 80 75 71
202 209 238 0 3 82 88 71
202 209 238 0 3 76 73 72
202 209 238 0 3 76 77 73
202 209 238 0 3 111 79 74
202 209 238 0 3 79 81 74
202 209 238 0 3 80 110 75
202 209 238 0 3 83 84 76
202 209 238 0 3 84 77 76
202 209 238 0 3 81 86 78
202 209 238 0 3 111 89 79
202 209 238 0 3 89 87 79
202 209 238 0 3 87 81 79
202 209 238 0 3 91 110 80
202 209 238 0 3 90 91 80
202 209 238 0 3 88 90 80
202 209 238 0 3 96 86 81
202 209 238 0 3 100 96 81
202 209 238 0 3 87 100 81
202 209 238 0 3 85 88 82
202 209 238 0 3 94 84 83
202 209 238 0 3 94 95 84
202 209 238 0 3 107 88 85
202 209 238 0 3 101 107 85
202 209 238 0 3 92 104 87
202 209 238 0 3 89 92 87
202 209 238 0 3 104 100 87
202 209 238 0 3 113 90 88
202 209 238 0 3 107 113 88
202 209 238 0 3 111 92 89
202 209 238 0 3 93 91 90
202 209 238 0 3 97 93 90
202 209 238 0 3 116 97 90
202 209 238 0 3 113 116 90
202 209 238 0 3 93 110 91
202 209 238 0 3 111 99 92
202 209 238 0 3 99 112 92
202 209 238 0 3 112 104 92
202 209 238 0 3 98 110 93
202 209 238 0 3 97 98 93
202 209 238 0 3 102 103 94
202 209 238 0 3 103 95 94
202 209 238 0 3 100 109 96
202 209 238 0 3 106 98 97
202 209 238 0 3 116 106 97
202 209 238 0 3 106 110 98
202 209 238 0 3 111 105 99
202 209 238 0 3 105 115 99
202 209 238 0 3 115 112 99
202 209 238 0 3 122 109 100
202 209 238 0 3 104 122 100
202 209 238 0 3 108 107 101
202 209 238 0 3 110 103 102
202 209 238 0 3 110 111 103
202 209 238 0 3 112 125 104
202 209 238 0 3 125 122 104
202 209 238 0 3 111 119 105
202 209 238 0 3 119 115 105
202 209 238 0 3 114 110 106
202 209 238 0 3 121 114 106
202 209 238 0 3 116 121 106
202 209 238 0 3 108 127 107
202 209 238 0 3 133 113 107
202 209 238 0 3 127 133 107
202 209 238 0 3 123 127 108
202 209 238 0 3 122 117 109
202 209 238 0 3 143 155 110
202 209 238 0 3 141 143 110
202 209 238 0 3 176 390 110
202 209 238 0 3 171 176 110
202 209 238 0 3 164 171 110
202 209 238 0 3 155 158 110
202 209 238 0 3 158 161 110
202 209 238 0 3 161 164 110
202 209 238 0 3 126 129 110
202 209 238 0 3 129 132 110
202 209 238 0 3 132 141 110
202 209 238 0 3 114 118 110
202 209 238 0 3 118 126 110
202 209 238 0 3 390 391 110
202 209 238 0 3 391 111 110
202 209 238 0 3 391 177 111
202 209 238 0 3 177 165 111
202 209 238 0 3 165 162 111
202 209 238 0 3 162 154 111
202 209 238 0 3 154 150 111
202 209 238 0 3 150 147 111
202 209 238 0 3 147 140 111
202 209 238 0 3 140 131 111
202 209 238 0 3 131 128 111
202 209 238 0 3 128 120 111
202 209 238 0 3 120 119 111
202 209 238 0 3 115 130 112
202 209 238 0 3 130 125 112
202 209 238 0 3 137 116 113
202 209 238 0 3 133 137 113
202 209 238 0 3 121 118 114
202 209 238 0 3 120 134 115
202 209 238 0 3 119 120 115
202 209 238 0 3 134 130 115
202 209 238 0 3 142 121 116
202 209 238 0 3 137 142 116
202 209 238 0 3 122 136 117
202 209 238 0 3 124 126 118
202 209 238 0 3 121 124 118
202 209 238 0 3 128 139 120
202 209 238 0 3 139 134 120
202 209 238 0 3 148 124 121
202 209 238 0 3 142 148 121
202 209 238 0 3 144 136 122
202 209 238 0 3 125 144 122
202 209 238 0 3 152 127 123
202 209 238 0 3 135 152 123
202 209 238 0 3 129 126 124
202 209 238 0 3 148 129 124
202 209 238 0 3 130 151 125
202 209 238 0 3 151 144 125
202 209 238 0 3 159 133 127
202 209 238 0 3 152 159 127
202 209 238 0 3 131 145 128
202 209 238 0 3 145 139 128
202 209 238 0 3 148 132 129
202 209 238 0 3 134 157 130
202 209 238 0 3 157 151 130
202 209 238 0 3 140 145 131
202 209 238 0 3 156 141 132
202 209 238 0 3 153 156 132
202 209 238 0 3 148 153 132
202 209 238 0 3 166 137 133
202 209 238 0 3 159 166 133
202 209 238 0 3 139 163 134
202 209 238 0 3 163 157 134
202 209 238 0 3 146 152 135
202 209 238 0 3 144 138 136
202 209 238 0 3 172 142 137
202 209 238 0 3 166 172 137
202 209 238 0 3 144 173 138
202 209 238 0 3 173 167 138
202 209 238 0 3 145 168 139
202 209 238 0 3 168 163 139
202 209 238 0 3 147 149 140
202 209 238 0 3 149 145 140
202 209 238 0 3 156 143 141
202 209 238 0 3 178 148 142
202 209 238 0 3 172 178 142
202 209 238 0 3 156 155 143
202 209 238 0 3 151 173 144
202 209 238 0 3 149 174 145
202 209 238 0 3 174 168 145
202 209 238 0 3 181 152 146
202 209 238 0 3 169 181 146
202 209 238 0 3 150 149 147
202 209 238 0 3 183 153 148
202 209 238 0 3 178 183 148
202 209 238 0 3 154 179 149
202 209 238 0 3 150 154 149
202 209 238 0 3 179 174 149
202 209 238 0 3 157 180 151
202 209 238 0 3 180 173 151
202 209 238 0 3 188 159 152
202 209 238 0 3 181 188 152
202 209 238 0 3 187 156 153
202 209 238 0 3 183 187 153
202 209 238 0 3 162 182 154
202 209 238 0 3 182 179 154
202 209 238 0 3 160 158 155
202 209 238 0 3 156 160 155
202 209 238 0 3 189 160 156
202 209 238 0 3 187 189 156
202 209 238 0 3 163 186 157
202 209 238 0 3 186 180 157
202 209 238 0 3 160 161 158
202 209 238 0 3 193 166 159
202 209 238 0 3 188 193 159
202 209 238 0 3 189 191 160
202 209 238 0 3 191 164 160
202 209 238 0 3 164 161 160
202 209 238 0 3 165 184 162
202 209 238 0 3 184 182 162
202 209 238 0 3 168 190 163
202 209 238 0 3 190 186 163
202 209 238 0 3 191 171 164
202 209 238 0 3 177 184 165
202 209 238 0 3 197 172 166
202 209 238 0 3 193 197 166
202 209 238 0 3 173 170 167
202 209 238 0 3 174 195 168
202 209 238 0 3 195 190 168
202 209 238 0 3 175 181 169
202 209 238 0 3 173 192 170
202 209 238 0 3 191 176 171
202 209 238 0 3 202 178 172
202 209 238 0 3 197 202 172
202 209 238 0 3 196 192 173
202 209 238 0 3 180 196 173
202 209 238 0 3 179 200 174
202 209 238 0 3 200 195 174
202 209 238 0 3 198 181 175
202 209 238 0 3 384 390 176
202 209 238 0 3 194 384 176
202 209 238 0 3 191 194 176
202 209 238 0 3 391 385 177
202 209 238 0 3 385 185 177
202 209 238 0 3 185 184 177
202 209 238 0 3 207 183 178
202 209 238 0 3 202 207 178
202 209 238 0 3 182 204 179
202 209 238 0 3 204 200 179
202 209 238 0 3 186 203 180
202 209 238 0 3 203 196 180
202 209 238 0 3 198 205 181
202 209 238 0 3 210 188 181
202 209 238 0 3 205 210 181
202 209 238 0 3 184 206 182
202 209 238 0 3 206 204 182
202 209 238 0 3 211 187 183
202 209 238 0 3 207 211 183
202 209 238 0 3 185 212 184
202 209 238 0 3 212 209 184
202 209 238 0 3 209 206 184
202 209 238 0 3 385 212 185
202 209 238 0 3 190 208 186
202 209 238 0 3 208 203 186
202 209 238 0 3 214 189 187
202 209 238 0 3 211 214 187
202 209 238 0 3 216 193 188
202 209 238 0 3 210 216 188
202 209 238 0 3 214 217 189
202 209 238 0 3 217 191 189
202 209 238 0 3 195 215 190
202 209 238 0 3 215 208 190
202 209 238 0 3 217 194 191
202 209 238 0 3 196 199 192
202 209 238 0 3 222 197 193
202 209 238 0 3 216 222 193
202 209 238 0 3 218 384 194
202 209 238 0 3 217 218 194
202 209 238 0 3 200 219 195
202 209 238 0 3 219 215 195
202 209 238 0 3 213 199 196
202 209 238 0 3 220 213 196
202 209 238 0 3 203 220 196
202 209 238 0 3 227 202 197
202 209 238 0 3 222 227 197
202 209 238 0 3 201 205 198
202 209 238 0 3 204 223 200
202 209 238 0 3 223 219 200
202 209 238 0 3 221 228 201
202 209 238 0 3 228 205 201
202 209 238 0 3 230 207 202
202 209 238 0 3 227 230 202
202 209 238 0 3 208 224 203
202 209 238 0 3 224 220 203
202 209 238 0 3 206 229 204
202 209 238 0 3 229 223 204
202 209 238 0 3 233 210 205
202 209 238 0 3 228 233 205
202 209 238 0 3 209 232 206
202 209 238 0 3 232 229 206
202 209 238 0 3 236 211 207
202 209 238 0 3 230 236 207
202 209 238 0 3 215 231 208
202 209 238 0 3 231 224 208
202 209 238 0 3 212 237 209
202 209 238 0 3 237 234 209
202 209 238 0 3 234 232 209
202 209 238 0 3 239 216 210
202 209 238 0 3 233 239 210
202 209 238 0 3 240 214 211
202 209 238 0 3 236 240 211
202 209 238 0 3 385 237 212
202 209 238 0 3 220 225 213
202 209 238 0 3 240 243 214
202 209 238 0 3 243 217 214
202 209 238 0 3 219 238 215
202 209 238 0 3 238 231 215
202 209 238 0 3 245 222 216
202 209 238 0 3 239 245 216
202 209 238 0 3 243 218 217
202 209 238 0 3 246 384 218
202 209 238 0 3 243 246 218
202 209 238 0 3 223 244 219
202 209 238 0 3 244 238 219
202 209 238 0 3 241 225 220
202 209 238 0 3 224 241 220
202 209 238 0 3 226 228 221
202 209 238 0 3 250 227 222
202 209 238 0 3 245 250 222
202 209 238 0 3 229 249 223
202 209 238 0 3 249 244 223
202 209 238 0 3 231 247 224
202 209 238 0 3 247 241 224
202 209 238 0 3 241 235 225
202 209 238 0 3 242 248 226
202 209 238 0 3 248 228 226
202 209 238 0 3 257 230 227
202 209 238 0 3 250 257 227
202 209 238 0 3 255 233 228
202 209 238 0 3 248 255 228
202 209 238 0 3 232 253 229
202 209 238 0 3 253 249 229
202 209 238 0 3 261 236 230
202 209 238 0 3 257 261 230
202 209 238 0 3 238 254 231
202 209 238 0 3 254 247 231
202 209 238 0 3 234 258 232
202 209 238 0 3 258 253 232
202 209 238 0 3 263 239 233
202 209 238 0 3 255 263 233
202 209 238 0 3 237 265 234
202 209 238 0 3 265 262 234
202 209 238 0 3 262 258 234
202 209 238 0 3 241 252 235
202 209 238 0 3 266 240 236
202 209 238 0 3 261 266 236
202 209 238 0 3 385 265 237
202 209 238 0 3 244 260 238
202 209 238 0 3 260 254 238
202 209 238 0 3 269 245 239
202 209 238 0 3 263 269 239
202 209 238 0 3 266 271 240
202 209 238 0 3 271 243 240
202 209 238 0 3 264 252 241
202 209 238 0 3 247 264 241
202 209 238 0 3 251 248 242
202 209 238 0 3 271 246 243
202 209 238 0 3 249 267 244
202 209 238 0 3 267 260 244
202 209 238 0 3 277 250 245
202 209 238 0 3 269 277 245
202 209 238 0 3 273 384 246
202 209 238 0 3 271 273 246
202 209 238 0 3 254 270 247
202 209 238 0 3 270 264 247
202 209 238 0 3 251 268 248
202 209 238 0 3 278 255 248
202 209 238 0 3 268 278 248
202 209 238 0 3 253 276 249
202 209 238 0 3 276 267 249
202 209 238 0 3 283 257 250
202 209 238 0 3 277 283 250
202 209 238 0 3 259 268 251
202 209 238 0 3 264 256 252
202 209 238 0 3 258 281 253
202 209 238 0 3 281 276 253
202 209 238 0 3 260 279 254
202 209 238 0 3 279 270 254
202 209 238 0 3 284 263 255
202 209 238 0 3 278 284 255
202 209 238 0 3 264 282 256
202 209 238 0 3 282 272 256
202 209 238 0 3 289 261 257
202 209 238 0 3 283 289 257
202 209 238 0 3 262 286 258
202 209 238 0 3 286 281 258
202 209 238 0 3 274 287 259
202 209 238 0 3 287 268 259
202 209 238 0 3 267 285 260
202 209 238 0 3 285 279 260
202 209 238 0 3 298 266 261
202 209 238 0 3 289 298 261
202 209 238 0 3 265 297 262
202 209 238 0 3 297 291 262
202 209 238 0 3 291 286 262
202 209 238 0 3 294 269 263
202 209 238 0 3 284 294 263
202 209 238 0 3 270 282 264
202 209 238 0 3 385 297 265
202 209 238 0 3 298 303 266
202 209 238 0 3 303 271 266
202 209 238 0 3 276 296 267
202 209 238 0 3 296 285 267
202 209 238 0 3 299 278 268
202 209 238 0 3 287 299 268
202 209 238 0 3 305 277 269
202 209 238 0 3 294 305 269
202 209 238 0 3 279 290 270
202 209 238 0 3 290 282 270
202 209 238 0 3 303 273 271
202 209 238 0 3 282 275 272
202 209 238 0 3 311 384 273
202 209 238 0 3 303 311 273
202 209 238 0 3 280 287 274
202 209 238 0 3 282 288 275
202 209 238 0 3 281 304 276
202 209 238 0 3 304 296 276
202 209 238 0 3 317 283 277
202 209 238 0 3 305 317 277
202 209 238 0 3 312 284 278
202 209 238 0 3 299 312 278
202 209 238 0 3 285 301 279
202 209 238 0 3 301 290 279
202 209 238 0 3 307 287 280
202 209 238 0 3 293 307 280
202 209 238 0 3 286 315 281
202 209 238 0 3 315 304 281
202 209 238 0 3 300 288 282
202 209 238 0 3 290 300 282
202 209 238 0 3 325 289 283
202 209 238 0 3 317 325 283
202 209 238 0 3 321 294 284
202 209 238 0 3 312 321 284
202 209 238 0 3 296 314 285
202 209 238 0 3 314 301 285
202 209 238 0 3 291 322 286
202 209 238 0 3 322 315 286
202 209 238 0 3 319 299 287
202 209 238 0 3 307 319 287
202 209 238 0 3 300 292 288
202 209 238 0 3 332 298 289
202 209 238 0 3 325 332 289
202 209 238 0 3 301 313 290
202 209 238 0 3 313 300 290
202 209 238 0 3 297 334 291
202 209 238 0 3 334 327 291
202 209 238 0 3 327 322 291
202 209 238 0 3 300 302 292
202 209 238 0 3 295 307 293
202 209 238 0 3 331 305 294
202 209 238 0 3 321 331 294
202 209 238 0 3 306 307 295
202 209 238 0 3 304 324 296
202 209 238 0 3 324 314 296
202 209 238 0 3 385 334 297
202 209 238 0 3 332 337 298
202 209 238 0 3 337 303 298
202 209 238 0 3 329 312 299
202 209 238 0 3 319 329 299
202 209 238 0 3 316 302 300
202 209 238 0 3 313 316 300
202 209 238 0 3 314 323 301
202 209 238 0 3 323 313 301
202 209 238 0 3 316 308 302
202 209 238 0 3 337 311 303
202 209 238 0 3 315 333 304
202 209 238 0 3 333 324 304
202 209 238 0 3 340 317 305
202 209 238 0 3 331 340 305
202 209 238 0 3 309 318 306
202 209 238 0 3 318 307 306
202 209 238 0 3 328 319 307
202 209 238 0 3 318 328 307
202 209 238 0 3 316 320 308
202 209 238 0 3 320 310 308
202 209 238 0 3 310 320 309
202 209 238 0 3 320 318 309
202 209 238 0 3 343 384 311
202 209 238 0 3 337 343 311
202 209 238 0 3 339 321 312
202 209 238 0 3 329 339 312
202 209 238 0 3 323 326 313
202 209 238 0 3 326 316 313
202 209 238 0 3 324 335 314
202 209 238 0 3 335 323 314
202 209 238 0 3 322 341 315
202 209 238 0 3 341 333 315
202 209 238 0 3 326 320 316
202 209 238 0 3 346 325 317
202 209 238 0 3 340 346 317
202 209 238 0 3 330 328 318
202 209 238 0 3 320 330 318
202 209 238 0 3 338 329 319
202 209 238 0 3 328 338 319
202 209 238 0 3 326 330 320
202 209 238 0 3 347 331 321
202 209 238 0 3 339 347 321
202 209 238 0 3 327 348 322
202 209 238 0 3 348 341 322
202 209 238 0 3 335 336 323
202 209 238 0 3 336 326 323
202 209 238 0 3 333 344 324
202 209 238 0 3 344 335 324
202 209 238 0 3 353 332 325
202 209 238 0 3 346 353 325
202 209 238 0 3 336 330 326
202 209 238 0 3 334 357 327
202 209 238 0 3 357 352 327
202 209 238 0 3 352 348 327
202 209 238 0 3 342 338 328
202 209 238 0 3 330 342 328
202 209 238 0 3 349 339 329
202 209 238 0 3 338 349 329
202 209 238 0 3 336 342 330
202 209 238 0 3 355 340 331
202 209 238 0 3 347 355 331
202 209 238 0 3 353 360 332
202 209 238 0 3 360 337 332
202 209 238 0 3 341 351 333
202 209 238 0 3 351 344 333
202 209 238 0 3 385 357 334
202 209 238 0 3 344 345 335
202 209 238 0 3 345 336 335
202 209 238 0 3 345 342 336
202 209 238 0 3 360 343 337
202 209 238 0 3 350 349 338
202 209 238 0 3 342 350 338
202 209 238 0 3 356 347 339
202 209 238 0 3 349 356 339
202 209 238 0 3 362 346 340
202 209 238 0 3 355 362 340
202 209 238 0 3 348 358 341
202 209 238 0 3 358 351 341
202 209 238 0 3 345 350 342
202 209 238 0 3 364 384 343
202 209 238 0 3 360 364 343
202 209 238 0 3 351 354 344
202 209 238 0 3 354 345 344
202 209 238 0 3 354 350 345
202 209 238 0 3 368 353 346
202 209 238 0 3 362 368 346
202 209 238 0 3 363 355 347
202 209 238 0 3 356 363 347
202 209 238 0 3 352 365 348
202 209 238 0 3 365 358 348
202 209 238 0 3 359 356 349
202 209 238 0 3 350 359 349
202 209 238 0 3 354 359 350
202 209 238 0 3 358 361 351
202 209 238 0 3 361 354 351
202 209 238 0 3 357 373 352
202 209 238 0 3 373 369 352
202 209 238 0 3 369 365 352
202 209 238 0 3 368 372 353
202 209 238 0 3 372 360 353
202 209 238 0 3 361 359 354
202 209 238 0 3 370 362 355
202 209 238 0 3 363 370 355
202 209 238 0 3 366 363 356
202 209 238 0 3 359 366 356
202 209 238 0 3 385 373 357
202 209 238 0 3 365 367 358
202 209 238 0 3 367 361 358
202 209 238 0 3 361 366 359
202 209 238 0 3 372 364 360
202 209 238 0 3 367 366 361
202 209 238 0 3 375 368 362
202 209 238 0 3 370 375 362
202 209 238 0 3 371 370 363
202 209 238 0 3 366 371 363
202 209 238 0 3 376 384 364
202 209 238 0 3 372 376 364
202 209 238 0 3 369 374 365
202 209 238 0 3 374 367 365
202 209 238 0 3 367 371 366
202 209 238 0 3 374 371 367
202 209 238 0 3 375 379 368
202 209 238 0 3 379 372 368
202 209 238 0 3 373 381 369
202 209 238 0 3 381 378 369
202 209 238 0 3 378 374 369
202 209 238 0 3 377 375 370
202 209 238 0 3 371 377 370
202 209 238 0 3 374 377 371
202 209 238 0 3 379 376 372
202 209 238 0 3 385 381 373
202 209 238 0 3 378 377 374
202 209 238 0 3 377 380 375
202 209 238 0 3 380 379 375
202 209 238 0 3 382 384 376
202 209 238 0 3 379 382 376
202 209 238 0 3 378 380 377
202 209 238 0 3 381 383 378
202 209 238 0 3 383 380 378
202 209 238 0 3 380 382 379
202 209 238 0 3 383 382 380
202 209 238 0 3 385 383 381
202 209 238 0 3 385 384 382
202 209 238 0 3 383 385 382
202 209 238 0 3 386 396 384
202 209 238 0 3 396 394 384
202 209 238 0 3 394 390 384
202 209 238 0 3 387 386 384
202 209 238 0 3 385 387 384
202 209 238 0 3 395 387 385
202 209 238 0 3 391 395 385
202 209 238 0 3 388 396 386
202 209 238 0 3 389 388 386
202 209 238 0 3 387 389 386
202 209 238 0 3 397 389 387
202 209 238 0 3 395 397 387
202 209 238 0 3 400 396 388
202 209 238 0 3 392 400 388
202 209 238 0 3 393 392 388
202 209 238 0 3 389 393 388
202 209 238 0 3 401 393 389
202 209 238 0 3 397 401 389
202 209 238 0 3 394 391 390
202 209 238 0 3 394 395 391
202 209 238 0 3 404 400 392
202 209 238 0 3 398 404 392
202 209 238 0 3 399 398 392
202 209 238 0 3 393 399 392
202 209 238 0 3 401 399 393
202 209 238 0 3 396 395 394
202 209 238 0 3 396 397 395
202 209 238 0 3 400 397 396
202 209 238 0 3 400 401 397
202 209 238 0 3 402 404 398
202 209 238 0 3 403 402 398
202 209 238 0 3 399 403 398
202 209 238 0 3 405 403 399
202 209 238 0 3 401 405 399
202 209 238 0 3 404 401 400
202 209 238 0 3 404 405 401
202 209 238 0 3 406 408 402
202 209 238 0 3 408 404 402
202 209 238 0 3 407 406 402
202 209 238 0 3 403 407 402
202 209 238 0 3 409 407 403
202 209 238 0 3 405 409 403
202 209 238 0 3 408 405 404
202 209 238 0 3 408 409 405
202 209 238 0 3 410 412 406
202 209 238 0 3 412 408 406
202 209 238 0 3 411 410 406
202 209 238 0 3 407 411 406
202 209 238 0 3 409 411 407
202 209 238 0 3 412 409 408
202 209 238 0 3 413 411 409
202 209 238 0 3 412 413 409
202 209 238 0 3 418 416 410
202 209 238 0 3 416 414 410
202 209 238 0 3 414 412 410
202 209 238 0 3 411 419 410
202 209 238 0 3 419 418 410
202 209 238 0 3 415 419 411
202 209 238 0 3 413 415 411
202 209 238 0 3 414 413 412
202 209 238 0 3 414 415 413
202 209 238 0 3 416 415 414
202 209 238 0 3 417 419 415
202 209 238 0 3 416 417 415
202 209 238 0 3 419 417 416
202 209 238 0 3 418 419 416
